<?xml version="1.0" encoding="UTF-8"?>
<!--
 Copyright (c) 2023 - 2025 Chair for Design Automation, TUM
 Copyright (c) 2025 Munich Quantum Software Company GmbH
 All rights reserved.

 SPDX-License-Identifier: MIT

 Licensed under the MIT License
-->

<svg xmlns="http://www.w3.org/2000/svg" xmlns:xlink="http://www.w3.org/1999/xlink" width="92.67pt" height="76.39pt" viewBox="0 0 92.67 76.39" version="1.1">
  <!-- Background rectangle with a white fill -->
<rect x="0" y="0" width="92.67" height="76.39" fill="white"/>
  <g id="surface1">
<path style="fill:none;stroke-width:0.79701;stroke-linecap:butt;stroke-linejoin:miter;stroke:rgb(26.667786%,53.33252%,100%);stroke-opacity:1;stroke-dasharray:1.99255,0.49814;stroke-miterlimit:10;" d="M -56.692594 70.86775 L -31.380094 70.86775 " transform="matrix(1,0,0,-1,60.509,73.899)"/>
<path style="fill:none;stroke-width:0.3985;stroke-linecap:butt;stroke-linejoin:miter;stroke:rgb(0%,0%,0%);stroke-opacity:1;stroke-miterlimit:10;" d="M -56.692594 42.520094 L -31.380094 42.520094 " transform="matrix(1,0,0,-1,60.509,73.899)"/>
<path style="fill:none;stroke-width:0.3985;stroke-linecap:butt;stroke-linejoin:miter;stroke:rgb(0%,0%,0%);stroke-opacity:1;stroke-miterlimit:10;" d="M -56.692594 14.172438 L -3.032438 14.172438 " transform="matrix(1,0,0,-1,60.509,73.899)"/>
<path style="fill:none;stroke-width:0.3985;stroke-linecap:butt;stroke-linejoin:miter;stroke:rgb(0%,0%,0%);stroke-opacity:1;stroke-miterlimit:10;" d="M 3.033969 14.172438 L 28.346469 14.172438 " transform="matrix(1,0,0,-1,60.509,73.899)"/>
<path style="fill:none;stroke-width:0.3985;stroke-linecap:butt;stroke-linejoin:miter;stroke:rgb(0%,0%,0%);stroke-opacity:1;stroke-miterlimit:10;" d="M -25.313688 42.520094 L 28.346469 42.520094 " transform="matrix(1,0,0,-1,60.509,73.899)"/>
<path style="fill:none;stroke-width:0.3985;stroke-linecap:butt;stroke-linejoin:miter;stroke:rgb(0%,0%,0%);stroke-opacity:1;stroke-miterlimit:10;" d="M -28.344938 67.832594 L -28.344938 45.55525 " transform="matrix(1,0,0,-1,60.509,73.899)"/>
<path style="fill:none;stroke-width:0.3985;stroke-linecap:butt;stroke-linejoin:miter;stroke:rgb(0%,0%,0%);stroke-opacity:1;stroke-miterlimit:10;" d="M -26.989469 68.152906 L -1.356656 16.887281 " transform="matrix(1,0,0,-1,60.509,73.899)"/>
<path style="fill:none;stroke-width:0.3985;stroke-linecap:butt;stroke-linejoin:miter;stroke:rgb(0%,0%,0%);stroke-opacity:1;stroke-miterlimit:10;" d="M -25.313688 70.86775 L 28.346469 70.86775 " transform="matrix(1,0,0,-1,60.509,73.899)"/>
<path style="fill-rule:nonzero;fill:rgb(84.70459%,97.254944%,84.70459%);fill-opacity:1;stroke-width:0.3985;stroke-linecap:butt;stroke-linejoin:miter;stroke:rgb(0%,0%,0%);stroke-opacity:1;stroke-miterlimit:10;" d="M -25.512906 70.86775 C -25.512906 72.434156 -26.782438 73.699781 -28.344938 73.699781 C -29.911344 73.699781 -31.180875 72.434156 -31.180875 70.86775 C -31.180875 69.301344 -29.911344 68.031813 -28.344938 68.031813 C -26.782438 68.031813 -25.512906 69.301344 -25.512906 70.86775 Z M -25.512906 70.86775 " transform="matrix(1,0,0,-1,60.509,73.899)"/>
<path style="fill-rule:nonzero;fill:rgb(90.979004%,64.704895%,64.704895%);fill-opacity:1;stroke-width:0.3985;stroke-linecap:butt;stroke-linejoin:miter;stroke:rgb(0%,0%,0%);stroke-opacity:1;stroke-miterlimit:10;" d="M -25.512906 42.520094 C -25.512906 44.0865 -26.782438 45.356031 -28.344938 45.356031 C -29.911344 45.356031 -31.180875 44.0865 -31.180875 42.520094 C -31.180875 40.953688 -29.911344 39.684156 -28.344938 39.684156 C -26.782438 39.684156 -25.512906 40.953688 -25.512906 42.520094 Z M -25.512906 42.520094 " transform="matrix(1,0,0,-1,60.509,73.899)"/>
<path style="fill-rule:nonzero;fill:rgb(90.979004%,64.704895%,64.704895%);fill-opacity:1;stroke-width:0.3985;stroke-linecap:butt;stroke-linejoin:miter;stroke:rgb(0%,0%,0%);stroke-opacity:1;stroke-miterlimit:10;" d="M 2.83475 14.172438 C 2.83475 15.738844 1.565219 17.008375 -0.0011875 17.008375 C -1.563688 17.008375 -2.833219 15.738844 -2.833219 14.172438 C -2.833219 12.606031 -1.563688 11.340406 -0.0011875 11.340406 C 1.565219 11.340406 2.83475 12.606031 2.83475 14.172438 Z M 2.83475 14.172438 " transform="matrix(1,0,0,-1,60.509,73.899)"/>
</g>
</svg>
